<svg width="512" height="512" viewBox="0 0 512 512" fill="none" xmlns="http://www.w3.org/2000/svg">
  <circle cx="256" cy="256" r="250" fill="#F9F9F9"/>
  <g clip-path="url(#clip0_1_2)">
    <path d="M342.2 169.1C342.2 182.8 331.2 193.8 317.5 193.8C303.8 193.8 292.8 182.8 292.8 169.1C292.8 155.4 303.8 144.4 317.5 144.4C331.2 144.4 342.2 155.4 342.2 169.1Z" fill="#14B8A6"/>
    <path d="M222.8 169.1C222.8 182.8 211.8 193.8 198.1 193.8C184.4 193.8 173.4 182.8 173.4 169.1C173.4 155.4 184.4 144.4 198.1 144.4C211.8 144.4 222.8 155.4 222.8 169.1Z" fill="#14B8A6"/>
    <path d="M256 86C161.5 86 86 161.5 86 256C86 350.5 161.5 426 256 426C350.5 426 426 350.5 426 256C426 161.5 350.5 86 256 86ZM256 368.5C192.5 368.5 141 318.1 141 256C141 193.9 191.4 143.5 253.5 143.5C253.5 143.5 303.2 143.9 368.3 182.8L350.5 211.3C298.8 180.3 256 180.5 256 180.5C212.4 180.5 177.5 214.7 177.5 256C177.5 297.3 213 331.5 256 331.5C299 331.5 326.9 305.2 333.7 279.8H259.8V244.7H373.4C373.4 244.7 371.1 368.5 256 368.5Z" fill="#14B8A6"/>
  </g>
  <defs>
    <clipPath id="clip0_1_2">
      <rect width="340" height="340" fill="white" transform="translate(86 86)"/>
    </clipPath>
  </defs>
</svg>