<svg width="512" height="512" viewBox="0 0 512 512" fill="none" xmlns="http://www.w3.org/2000/svg">
  <circle cx="256" cy="256" r="250" fill="#F9F9F9"/>
  <g clip-path="url(#clip0_1_2)">
    <path d="M257.6 91.3C254.1 91.3 251.2 94.3 251.2 97.7V414.3C251.2 417.8 254.1 420.7 257.6 420.7H355.2C358.7 420.7 361.6 417.8 361.6 414.3V97.7C361.6 94.3 358.7 91.3 355.2 91.3H257.6Z" fill="#6366F1"/>
    <path d="M150.4 91.3C146.9 91.3 144 94.3 144 97.7V207.7C144 211.1 146.9 214.1 150.4 214.1H215.2C218.7 214.1 221.6 211.1 221.6 207.7V97.7C221.6 94.3 218.7 91.3 215.2 91.3H150.4Z" fill="#6366F1"/>
    <path d="M150.4 256C146.9 256 144 258.9 144 262.4V414.3C144 417.7 146.9 420.7 150.4 420.7H215.2C218.7 420.7 221.6 417.7 221.6 414.3V262.4C221.6 258.9 218.7 256 215.2 256H150.4Z" fill="#6366F1"/>
  </g>
  <defs>
    <clipPath id="clip0_1_2">
      <rect width="340" height="340" fill="white" transform="translate(86 86)"/>
    </clipPath>
  </defs>
</svg>