<svg width="512" height="512" viewBox="0 0 512 512" fill="none" xmlns="http://www.w3.org/2000/svg">
  <circle cx="256" cy="256" r="250" fill="#F9F9F9"/>
  <g clip-path="url(#clip0_1_2)">
    <path d="M256 86C161.5 86 86 161.5 86 256C86 350.5 161.5 426 256 426C350.5 426 426 350.5 426 256C426 161.5 350.5 86 256 86ZM207.8 345.3C201.5 351.6 192.8 355 184 355C166.4 355 152 340.6 152 323C152 305.4 166.4 291 184 291C192.8 291 201.5 294.4 207.8 300.7L212 305L295.6 246.3L288 238.6L207.9 218.7L207.8 218.7C201.5 225 192.8 228.3 184 228.3C166.4 228.3 152 214 152 196.3C152 178.7 166.4 164.3 184 164.3C201.6 164.3 216 178.7 216 196.3C216 196.9 216 197.5 215.9 198.1L293.5 217.3L322.9 193.4L322.8 193.3C316.5 187 312 178.7 312 170C312 152.4 326.4 138 344 138C361.6 138 376 152.4 376 170C376 187.6 361.6 202 344 202C343.4 202 342.7 202 342.1 201.9L305.6 232L316.6 243L316.7 243C323 236.7 332 233 341 233C358.6 233 373 247.4 373 265C373 282.6 358.6 297 341 297C332.3 297 323.7 293.7 317.3 287.5L314 290.5L232 348L232.1 348.1C232.1 348.7 232.2 349.3 232.2 350C232.2 367.6 217.8 382 200.2 382C182.6 382 168.2 367.6 168.2 350C168.2 332.3 182.5 318 200.1 318C208.8 318 217.3 321.5 223.6 327.7L223.6 327.7L297.4 276.1C291.7 270.1 288 262.1 288 253.5C288 235.9 302.4 221.5 320 221.5C337.6 221.5 352 235.9 352 253.5C352 271.1 337.6 285.5 320 285.5C311.2 285.5 302.5 282.1 296.2 275.8L296.1 275.9L214.3 334.5L214.3 334.5C214.7 336.3 215 338.2 215 340C215 342.1 214.8 344.2 214.3 346.1L207.8 345.3Z" fill="#EF4444"/>
  </g>
  <defs>
    <clipPath id="clip0_1_2">
      <rect width="340" height="340" fill="white" transform="translate(86 86)"/>
    </clipPath>
  </defs>
</svg>